<svg xmlns="http://www.w3.org/2000/svg" viewBox="0 0 24 24" width="48" height="48">
  <defs>
    <linearGradient id="businessGradient" x1="0%" y1="0%" x2="100%" y2="100%">
      <stop offset="0%" stop-color="#1A365D" />
      <stop offset="100%" stop-color="#2A4A7F" />
    </linearGradient>
  </defs>
  <path fill="url(#businessGradient)" d="M20 7h-4V5c0-1.1-.9-2-2-2h-4c-1.1 0-2 .9-2 2v2H4c-1.1 0-2 .9-2 2v10c0 1.1.9 2 2 2h16c1.1 0 2-.9 2-2V9c0-1.1-.9-2-2-2zM10 5h4v2h-4V5zm10 14H4V9h16v10z"/>
  <path fill="#D4AF37" d="M9 12h6v2H9z"/>
  <path fill="#D4AF37" d="M7 14h2v3H7z"/>
  <path fill="#D4AF37" d="M15 14h2v3h-2z"/>
</svg>
